<svg xmlns="http://www.w3.org/2000/svg" version="1.1" preserveAspectRatio="none" x="0px" y="0px" viewBox="0 0 100 125"><defs><g id="b"><path fill="#000000" stroke="none" d=" M 79.3 21.6 Q 67.3 9.6 50.25 9.6 33.25 9.6 21.25 21.6 9.25 33.6 9.25 50.6 9.25 67.65 21.25 79.65 33.25 91.65 50.25 91.65 67.3 91.65 79.3 79.65 91.3 67.65 91.3 50.6 91.3 33.6 79.3 21.6 M 42.85 20.7 Q 43.15 20.3 43.65 20.25 43.95 20.2 44.25 20.3 44.75 20.65 44.8 20.95 45.1 21.3 46.2 23.15 L 62.65 51.75 Q 62.75 51.8 62.95 52.3 63.05 52.4 63.1 52.5 L 71.55 52.5 Q 71.6 52.45 72.15 52.5 72.25 52.45 72.4 52.5 72.7 52.7 72.7 52.85 L 72.8 52.95 72.75 53.25 68.3 61.4 56.35 82.45 56.05 82.85 Q 55.5 83.2 55.05 82.8 L 54.9 82.65 Q 54.15 82.1 53.35 80.45 L 43.35 62.95 38.05 53.95 Q 38 53.8 38 53.65 L 25.8 53.7 25.3 53.65 Q 24.7 53.35 24.8 52.75 L 24.8 52.7 24.85 52.45 Q 25 51.5 26.15 49.75 L 37.25 30.7 42.85 20.7 M 59.9 71.8 L 50.9 71.95 55.35 80.05 Q 55.5 79.65 55.8 79.25 L 59.9 71.8 M 60.95 70.25 L 65.1 63.05 51.8 62.95 45.45 63.25 49.5 70.2 Q 49.6 70.1 50.5 70.15 L 60.95 70.25 M 66.2 61.25 L 70.25 54.2 40.3 54.3 44.5 61.5 Q 44.75 61.4 44.95 61.4 46.4 61.3 53.1 61.2 L 66.2 61.25 M 27.6 51.45 Q 28.05 51.45 28.65 51.45 L 37.95 51.3 32.85 42.8 27.6 51.45 M 39.3 31 Q 39.45 31.15 39.6 31.35 40.45 32.75 44.25 39 L 51.4 51.45 60.35 51.45 43.8 23.15 39.3 31 M 38.2 32.85 L 33.75 40.5 Q 33.9 40.6 34.3 41.45 L 40 51.45 49.05 51.45 41.9 38.75 38.2 32.85 Z"/></g><path id="a" stroke="#000000" stroke-width="1" stroke-linejoin="round" stroke-linecap="round" fill="none" d=" M 91.3 50.6 Q 91.3 67.65 79.3 79.65 67.3 91.65 50.25 91.65 33.25 91.65 21.25 79.65 9.25 67.65 9.25 50.6 9.25 33.6 21.25 21.6 33.25 9.6 50.25 9.6 67.3 9.6 79.3 21.6 91.3 33.6 91.3 50.6 Z"/></defs><g transform="matrix( 1, 0, 0, 1, 0,0) "><use xlink:href="#b"/><use xlink:href="#a"/></g><text x="0" y="115" fill="#000000" font-size="5px" font-weight="bold" font-family="'Helvetica Neue', Helvetica, Arial-Unicode, Arial, Sans-serif">Created by Tatiana</text><text x="0" y="120" fill="#000000" font-size="5px" font-weight="bold" font-family="'Helvetica Neue', Helvetica, Arial-Unicode, Arial, Sans-serif">from the Noun Project</text></svg>